<svg width="36px" height="36px" viewBox="0 0 300 300" xmlns="http://www.w3.org/2000/svg">

 <g>
  <title>Layer 1</title>
  <g data-bx-workspace="master" xmlns="http://www.w3.org/2000/svg" xmlns:bx="https://boxy-svg.com" viewBox="118.31 6.077 260 260" width="10px" height="10px"
    transform="translate(-95 15)"><defs></defs><path d="M 338.207 114.626 C 342.928 116.977 346.757 120.377 349.692 124.826 C 352.689 129.369 354.346 134.384 354.664 139.872 C 354.988 145.473 353.874 150.802 351.321 155.859 C 348.717 161.016 344.973 165.189 340.088 168.376 C 335.417 171.424 330.299 173.182 324.736 173.65 C 313.555 220.074 282.622 253.444 246.212 253.444 C 209.743 253.444 178.768 219.964 167.633 173.423 C 166.932 173.519 166.221 173.59 165.501 173.636 C 160.404 173.96 155.546 172.971 150.925 170.67 C 146.204 168.319 142.375 164.919 139.44 160.47 C 136.443 155.927 134.786 150.912 134.468 145.424 C 134.144 139.823 135.258 134.494 137.811 129.437 C 140.415 124.28 144.159 120.107 149.044 116.92 C 153.855 113.78 159.14 112.01 164.898 111.607 C 172.614 57.745 206.087 17.218 246.212 17.218 C 286.353 17.218 319.837 57.778 327.536 111.672 C 331.224 111.935 334.78 112.92 338.207 114.626 Z" style="paint-order: fill; fill: none; stroke: rgb(0, 0, 0); stroke-width: 5px;"></path><path style="paint-order: fill; fill: none; stroke: rgb(84, 84, 84); stroke-width: 2.6391px;" transform="matrix(-2.556131, 2.556131, -2.556131, -2.556131, 1798.80481, -70.92112)" d="M 366 251.5 A 10.5 10.5 0 1 1 355.5 241 L 355.5 246.04 A 5.46 5.46 0 1 0 360.96 251.5 Z" data-bx-shape="pie 355.5 251.5 5.46 10.5 90 360 1@684ba62b"></path><path d="M -323.657 -139.872 Q -323.657 -140.38652056 -323.18854059 -140.683395499 Q -322.688263298 -141.000434258 -322.034209003 -140.808918819 Q -321.307178561 -140.596035034 -320.846243542 -139.872 Q -320.328388488 -139.058555182 -320.411418005 -137.998162362 Q -320.504258745 -136.812467718 -321.314702952 -135.815022506 Q -322.212262217 -134.710361404 -323.657 -134.250487085 Q -325.24103212 -133.746274001 -326.936215867 -134.192231509 Q -328.777961685 -134.676745578 -330.14816399 -136.124324723 Q -331.625103168 -137.684668291 -332.089269373 -139.872 Q -332.586220586 -142.213827419 -331.770954987 -144.556594096 Q -330.90313511 -147.050382003 -328.810053506 -148.797350486 Q -326.593064978 -150.647736576 -323.657 -151.11502583 Q -320.560407983 -151.607863757 -317.567027675 -150.420141483 Q -314.421713522 -149.17213445 -312.297463018 -146.430431734 Q -310.072653597 -143.558940815 -309.603217712 -139.872 Q -309.112969486 -136.021599436 -310.674672021 -132.376649446 Q -312.301462169 -128.579787624 -315.693190037 -126.078276522 Q -319.218252135 -123.478427031 -323.657 -123.007461255 Q -328.260840009 -122.518978658 -332.557728782 -124.455485525 Q -337.006241128 -126.460325575 -339.884909974 -130.502811808 Q -342.860193753 -134.680973437 -343.332295203 -139.872 Q -343.819501834 -145.229116707 -341.507700971 -150.178107011 Q -339.125236907 -155.278369645 -334.431566421 -158.53409647 Q -329.600571529 -161.885077266 -323.657 -162.358051661 Q -317.546684982 -162.84429508 -311.94551476 -160.156887468 Q -306.193419362 -157.397066868 -302.560717034 -152.051944649 Q -298.833856753 -146.568279352 -298.360191882 -139.872 Q -297.874700455 -133.008526656 -300.937926036 -126.755136531 Q -304.074924922 -120.351142659 -310.071677122 -116.341530538 Q -316.207906929 -112.238659418 -323.657 -111.764435424 Q -331.273610597 -111.279546934 -338.179241697 -114.71873954 Q -345.235186156 -118.232792298 -349.621655958 -124.881298893 Q -354.100635394 -131.670020953 -354.575321033 -139.872 Q -355.059715564 -148.241736648 -351.244446956 -155.799619926 Q -347.353430442 -163.507556553 -340.053079336 -168.270842455 Q -332.61191628 -173.126004427 -323.657 -173.601077491 Q -322.477705728 -173.663640995 -321.295464338 -173.643533357" data-bx-shape="spiral -323.657 -139.872 0 33.854 0 1084 1@b26ecbaf" style="paint-order: fill; fill: none; stroke: rgb(255, 81, 81); stroke-width: 5px;" transform="matrix(-1, 0, 0, -1, 0, 0)" data-bx-origin="0.5 0.544973"></path><path d="M 165.488 145.454 Q 165.488 144.93947944 165.95645941 144.642604501 Q 166.456736702 144.325565742 167.110790997 144.517081181 Q 167.837821439 144.729964966 168.298756458 145.454 Q 168.816611512 146.267444818 168.733581995 147.327837638 Q 168.640741255 148.513532282 167.830297048 149.510977494 Q 166.932737783 150.615638596 165.488 151.075512915 Q 163.90396788 151.579725999 162.208784133 151.133768491 Q 160.367038315 150.649254422 158.99683601 149.201675277 Q 157.519896832 147.641331709 157.055730627 145.454 Q 156.558779414 143.112172581 157.374045013 140.769405904 Q 158.24186489 138.275617997 160.334946494 136.528649514 Q 162.551935022 134.678263424 165.488 134.21097417 Q 168.584592017 133.718136243 171.577972325 134.905858517 Q 174.723286478 136.15386555 176.847536982 138.895568266 Q 179.072346403 141.767059185 179.541782288 145.454 Q 180.032030514 149.304400564 178.470327979 152.949350554 Q 176.843537831 156.746212376 173.451809963 159.247723478 Q 169.926747865 161.847572969 165.488 162.318538745 Q 160.884159991 162.807021342 156.587271218 160.870514475 Q 152.138758872 158.865674425 149.260090026 154.823188192 Q 146.284806247 150.645026563 145.812704797 145.454 Q 145.325498166 140.096883293 147.637299029 135.147892989 Q 150.019763093 130.047630355 154.713433579 126.79190353 Q 159.544428471 123.440922734 165.488 122.967948339 Q 171.598315018 122.48170492 177.19948524 125.169112532 Q 182.951580638 127.928933132 186.584282966 133.274055351 Q 190.311143247 138.757720648 190.784808118 145.454 Q 191.270299545 152.317473344 188.207073964 158.570863469 Q 185.070075078 164.974857341 179.073322878 168.984469462 Q 172.937093071 173.087340582 165.488 173.561564576 Q 157.871389403 174.046453066 150.965758303 170.60726046 Q 143.909813844 167.093207702 139.523344042 160.444701107 Q 135.044364606 153.655979047 134.569678967 145.454 Q 134.085284436 137.084263352 137.900553044 129.526380074 Q 141.791569558 121.818443447 149.091920664 117.055157545 Q 156.53308372 112.199995573 165.488 111.724922509 Q 166.667294272 111.662359005 167.849535662 111.682466643" data-bx-shape="spiral 165.488 145.454 0 33.854 0 1084 1@fb149f73" style="fill: none; stroke: rgb(255, 81, 81); stroke-width: 5px;"></path><path style="paint-order: fill; fill: none; stroke: rgb(84, 84, 84); stroke-width: 2.6391px;" transform="matrix(2.55613, -2.556132, 2.556132, 2.55613, -1306.130859, 341.37677)" d="M 366 251.5 A 10.5 10.5 0 1 1 355.5 241 L 355.5 246.04 A 5.46 5.46 0 1 0 360.96 251.5 Z" data-bx-shape="pie 355.5 251.5 5.46 10.5 90 360 1@684ba62b"></path></g>
 </g>
</svg>