<svg width="300" height="300" xmlns="http://www.w3.org/2000/svg">

 <g>
  <title>Layer 1</title>
  <g data-bx-workspace="master" xmlns="http://www.w3.org/2000/svg" xmlns:bx="https://boxy-svg.com" viewBox="118.31 6.077 260 260" width="10px" height="10px"
    transform="translate(-95 15)"
                ><defs></defs><path d="M 338.207 114.626 C 342.928 116.977 346.757 120.377 349.692 124.826 C 352.689 129.369 354.346 134.384 354.664 139.872 C 354.988 145.473 353.874 150.802 351.321 155.859 C 348.717 161.016 344.973 165.189 340.088 168.376 C 335.417 171.424 330.299 173.182 324.736 173.65 C 313.555 220.074 282.622 253.444 246.212 253.444 C 209.743 253.444 178.768 219.964 167.633 173.423 C 166.932 173.519 166.221 173.59 165.501 173.636 C 160.404 173.96 155.546 172.971 150.925 170.67 C 146.204 168.319 142.375 164.919 139.44 160.47 C 136.443 155.927 134.786 150.912 134.468 145.424 C 134.144 139.823 135.258 134.494 137.811 129.437 C 140.415 124.28 144.159 120.107 149.044 116.92 C 153.855 113.78 159.14 112.01 164.898 111.607 C 172.614 57.745 206.087 17.218 246.212 17.218 C 286.353 17.218 319.837 57.778 327.536 111.672 C 331.224 111.935 334.78 112.92 338.207 114.626 Z" style="stroke-width: 3px; paint-order: fill; fill: none; stroke: rgb(0, 0, 0);"></path><path style="paint-order: fill; fill: none; stroke: rgb(84, 84, 84);" transform="matrix(1.339672, -1.339672, 1.339672, 1.339672, -565.96875, 188.644882)" d="M 366 251.5 A 10.5 10.5 0 1 1 355.5 241 L 355.5 246.04 A 5.46 5.46 0 1 0 360.96 251.5 Z" data-bx-shape="pie 355.5 251.5 5.46 10.5 90 360 1@684ba62b"></path><path style="paint-order: fill; fill: none; stroke: rgb(84, 84, 84);" transform="matrix(-1.339672, 1.339672, -1.339672, -1.339672, 1060.414063, 81.136276)" d="M 366 251.5 A 10.5 10.5 0 1 1 355.5 241 L 355.5 246.04 A 5.46 5.46 0 1 0 360.96 251.5 Z" data-bx-shape="pie 355.5 251.5 5.46 10.5 90 360 1@684ba62b"></path><path d="M -323.657 -139.872 Q -323.657 -140.387948462 -323.187240518 -140.68564729 Q -322.685574852 -141.003565898 -322.02970542 -140.811518964 Q -321.300657317 -140.598044382 -320.838443108 -139.872 Q -320.319150898 -139.056297704 -320.40241084 -137.992962072 Q -320.495509232 -136.803976879 -321.30820259 -135.80376355 Q -322.208252769 -134.696036783 -323.657 -134.234886216 Q -325.245428139 -133.729273836 -326.945316374 -134.176468969 Q -328.79217342 -134.662327666 -330.166178321 -136.113924144 Q -331.647216313 -137.678597991 -332.112670675 -139.872 Q -332.611001031 -142.220326478 -331.793472901 -144.56959482 Q -330.923244643 -147.070303507 -328.824354302 -148.822120191 Q -326.601213169 -150.677641488 -323.657 -151.146227567 Q -320.551814295 -151.640433221 -317.550126735 -150.449414771 Q -314.39608368 -149.197944259 -312.265937939 -146.448632747 Q -310.034954208 -143.569172843 -309.564215541 -139.872 Q -309.072606774 -136.010913773 -310.638643358 -132.355848289 Q -312.269948187 -128.548449385 -315.671088807 -126.039996068 Q -319.205933686 -123.432931453 -323.657 -122.960658649 Q -328.273616624 -122.470820412 -332.582430157 -124.412701488 Q -337.04328805 -126.423105387 -339.929945802 -130.476810361 Q -342.913486613 -134.666567258 -343.386898242 -139.872 Q -343.875456973 -145.243983821 -341.557240382 -150.206708603 Q -339.168164484 -155.321125527 -334.461468085 -158.585887672 Q -329.617066177 -161.946168138 -323.657 -162.420455134 Q -317.529727586 -162.90804798 -311.913012951 -160.213182252 Q -306.144954291 -157.445702576 -302.502170458 -152.085746531 Q -298.764967363 -146.586862921 -298.289987974 -139.872 Q -297.803149208 -132.989479089 -300.874875877 -126.718734505 Q -304.020580587 -120.296968217 -310.033975023 -116.276228587 Q -316.187234145 -112.161971146 -323.657 -111.686431082 Q -331.294748277 -111.200196925 -338.219543941 -114.648934007 Q -345.295070114 -118.172738993 -349.693713283 -124.839696577 Q -354.185122819 -131.647258754 -354.661125809 -139.872 Q -355.146864636 -148.264964409 -351.321007863 -155.843822387 Q -347.419192968 -163.573150142 -340.098581869 -168.349655153 Q -332.636768036 -173.218291211 -323.657 -173.694682701 Q -323.361743286 -173.710346556 -323.066166232 -173.720843872" data-bx-shape="spiral -323.657 -139.872 0 33.854 0 1081 1@859c1f09" style="stroke-width: 3px; paint-order: fill; fill: none; stroke: rgb(255, 81, 81);" transform="matrix(-1, 0, 0, -1, 0, 0)" data-bx-origin="0.5 0.544973"></path><path d="M 165.488 145.454 Q 165.488 144.938528385 165.957325323 144.641104694 Q 166.458527342 144.323479911 167.113790611 144.515349353 Q 167.842164917 144.728626639 168.303951941 145.454 Q 168.822764214 146.268948412 168.739581222 147.331301294 Q 168.646568873 148.519187609 167.834626617 149.518476528 Q 166.935408278 150.625179517 165.488 151.085903882 Q 163.90103991 151.591048967 162.202722736 151.144267139 Q 160.357572582 150.65885748 158.984837556 149.208602588 Q 157.50516836 147.645374836 157.040144177 145.454 Q 156.542274386 143.107843879 157.359046945 140.760746765 Q 158.228470925 138.262349269 160.325421442 136.512151639 Q 162.546507915 134.658345242 165.488 134.190192237 Q 168.590315847 133.696443334 171.589229205 134.886361028 Q 174.740357247 136.136674913 176.868534278 138.883445471 Q 179.097456101 141.760244137 179.567759704 145.454 Q 180.058914119 149.311517756 178.494324889 152.963205176 Q 176.864527735 156.767085227 173.466530499 159.273220194 Q 169.934952575 161.877875322 165.488 162.349711645 Q 160.87565012 162.839097167 156.570818854 160.899010805 Q 152.11408375 158.890464951 149.230093889 154.84050647 Q 146.24931051 150.654621806 145.776336414 145.454 Q 145.288229216 140.086981044 147.604303278 135.128842884 Q 149.991171158 130.019152777 154.69351756 126.757407973 Q 159.533442202 123.400233127 165.488 122.926384473 Q 171.6096095 122.439242267 177.221133087 125.131617362 Q 182.983860824 127.896539293 186.623277944 133.25154159 Q 190.357027061 138.745343052 190.831567468 145.454 Q 191.31795629 152.330159986 188.249068555 158.595109057 Q 185.106271151 165.010940257 179.098434381 169.027963861 Q 172.950862189 173.138418846 165.488 173.613519409 Q 157.85731064 174.099304181 150.938914972 170.653754472 Q 143.869928103 167.133206237 139.475350223 160.472410351 Q 134.988091713 153.671139821 134.512528651 145.454 Q 134.027238751 137.068792489 137.849559612 129.496939002 Q 141.747768393 121.774754803 149.061613678 117.002664306 Q 156.516531195 112.138527912 165.488 111.66257671 Q 166.078193897 111.631265951 166.669487561 111.620622942" data-bx-shape="spiral 165.488 145.454 0 33.854 0 1082 1@dbe327fe" style="stroke-width: 3px; fill: none; stroke: rgb(255, 81, 81);"></path></g>
 </g>
</svg>